PathFileType	4	(X/Y/Z)	OpenSim_static_markers.trc
DataRate	CameraRate	NumFrames	NumMarkers	Units	OrigDataRate	OrigDataStartFrame	OrigNumFrames
100	100	5	41	m	100	1	5
Frame#	Time	APEX	L1MT	L2MT	L5MT	LASI	LCAL	LFBH	LGTR	LLEP	LLML	LMEP	LMML	LPS1	LPS2	LSH1	LSH2	LSH3	LTH1	LTH2	LTH3	LTTB	R1MT	R2MT	R5MT	RASI	RCAL	RFBH	RGTR	RLEP	RLML	RMEP	RMML	RPS1	RPS2	RSH1	RSH2	RSH3	RTH1	RTH2	RTH3	RTTB
				X1	Y1	Z1	X2	Y2	Z2	X3	Y3	Z3	X4	Y4	Z4	X5	Y5	Z5	X6	Y6	Z6	X7	Y7	Z7	X8	Y8	Z8	X9	Y9	Z9	X10	Y10	Z10	X11	Y11	Z11	X12	Y12	Z12	X13	Y13	Z13	X14	Y14	Z14	X15	Y15	Z15	X16	Y16	Z16	X17	Y17	Z17	X18	Y18	Z18	X19	Y19	Z19	X20	Y20	Z20	X21	Y21	Z21	X22	Y22	Z22	X23	Y23	Z23	X24	Y24	Z24	X25	Y25	Z25	X26	Y26	Z26	X27	Y27	Z27	X28	Y28	Z28	X29	Y29	Z29	X30	Y30	Z30	X31	Y31	Z31	X32	Y32	Z32	X33	Y33	Z33	X34	Y34	Z34	X35	Y35	Z35	X36	Y36	Z36	X37	Y37	Z37	X38	Y38	Z38	X39	Y39	Z39	X40	Y40	Z40	X41		Y41	Z41	

1	0	-0.84797200	1.78086000	-0.57108100	-0.89253400	0.05692600	-0.67256500	-0.87975500	0.06510100	-0.71804000	-0.92733900	0.05374900	-0.76339300	-0.88758500	1.03263600	-0.62401600	-1.10545100	0.06283600	-0.68720500	-1.01079600	0.47370500	-0.71705200	-1.01148200	0.96393800	-0.68568100	-0.97246000	0.52391100	-0.70711800	-1.05588600	0.11149500	-0.72767600	-0.97170300	0.50772700	-0.59518600	-1.01981500	0.11668800	-0.64955100	-1.04451900	1.13353700	-0.52719100	-1.06371700	1.06552500	-0.52636500	-1.05913800	0.43581100	-0.72492700	-1.07804200	0.33529800	-0.73429300	-1.02107200	0.32547700	-0.74653000	-0.98686700	0.82374700	-0.73434900	-0.98530200	0.72138000	-0.73193000	-0.92740300	0.72263400	-0.71534300	-0.94999000	0.44479300	-0.66851900	-0.88643400	0.04597800	-0.37033800	-0.87068600	0.06269500	-0.32060500	-0.91288700	0.05048100	-0.27452300	-0.86559700	1.02849600	-0.40526000	-1.08956700	0.06095300	-0.35170200	-0.98157200	0.47471000	-0.31074100	-0.96925300	0.96501800	-0.31893200	-0.92762300	0.52075000	-0.32233300	-1.03608900	0.11698700	-0.30822700	-0.93473500	0.50552300	-0.43424400	-1.00479300	0.11995500	-0.38598300	-1.03756300	1.13759700	-0.47657300	-1.05644900	1.06316500	-0.45944200	-0.95280000	0.43309400	-0.30210000	-0.96387300	0.33122800	-0.29250800	-1.02257400	0.34080200	-0.28500800	-0.90918200	0.77718600	-0.29842800	-0.91321300	0.67405400	-0.30849200	-0.97159000	0.67630600	-0.30639500	-0.91419800	0.45094000	-0.36476800
2	0.01000000	-0.84399300	1.77966500	-0.56955800	-0.89254000	0.05692800	-0.67258200	-0.87947000	0.06533900	-0.71803800	-0.92486300	0.05552800	-0.76319700	-0.88710400	1.03251400	-0.62320300	-1.10544800	0.06283300	-0.68721300	-1.01065700	0.47373000	-0.71659300	-1.01128600	0.96372300	-0.68496200	-0.97231500	0.52383100	-0.70669400	-1.05586900	0.11156400	-0.72764300	-0.97136300	0.50754100	-0.59476400	-1.01981200	0.11666200	-0.64950800	-1.04425100	1.13359500	-0.52642000	-1.06321000	1.06542000	-0.52543500	-1.05906600	0.43571600	-0.72434800	-1.07801800	0.33528300	-0.73393500	-1.02101200	0.32551300	-0.74630900	-0.98656500	0.82389700	-0.73348100	-0.98511800	0.72148100	-0.73116600	-0.92726800	0.72258700	-0.71468700	-0.94964100	0.44481000	-0.66807500	-0.88645300	0.04597500	-0.37033300	-0.87068700	0.06270300	-0.32061600	-0.91288900	0.05048000	-0.27453600	-0.86507600	1.02851500	-0.40432100	-1.08985500	0.06131500	-0.35107900	-0.98106400	0.47457000	-0.31023800	-0.96808800	0.96524600	-0.31653500	-0.92701700	0.52063700	-0.32220400	-1.03607500	0.11696400	-0.30814300	-0.93437400	0.50557800	-0.43386700	-1.00477600	0.11992400	-0.38598300	-1.03717400	1.13753100	-0.47572700	-1.05586400	1.06308300	-0.45856400	-0.95223900	0.43288600	-0.30166300	-0.96343800	0.33106000	-0.29226100	-1.02178800	0.34033400	-0.28564300	-0.90860300	0.77703400	-0.29768800	-0.91269400	0.67399100	-0.30785000	-0.97094100	0.67622500	-0.30578500	-0.91373400	0.45088600	-0.36446500
3	0.02000000	-0.83952500	1.77831100	-0.56751700	-0.89252500	0.05692900	-0.67259000	-0.87940200	0.06538900	-0.71804900	-0.92489000	0.05556700	-0.76320000	-0.88701400	1.03185500	-0.62177900	-1.10545100	0.06284500	-0.68717500	-1.01031900	0.47407200	-0.71630500	-1.01103500	0.96357600	-0.68422300	-0.97212900	0.52383100	-0.70625500	-1.05511200	0.11074300	-0.72927900	-0.97095800	0.50728900	-0.59426400	-1.01982800	0.11661800	-0.64947600	-1.04372700	1.13348100	-0.52556000	-1.06290700	1.06536300	-0.52462300	-1.05893100	0.43573300	-0.72391900	-1.07799700	0.33526400	-0.73357900	-1.02094300	0.32555500	-0.74604000	-0.98634400	0.82405700	-0.73252800	-0.98484200	0.72158000	-0.73042100	-0.92711900	0.72252900	-0.71401600	-0.94951000	0.44470700	-0.66759400	-0.88645200	0.04598700	-0.37034400	-0.87071200	0.06270900	-0.32059100	-0.91289000	0.05048400	-0.27453500	-0.86470200	1.02842700	-0.40347700	-1.08986900	0.06133900	-0.35106000	-0.98068300	0.47444100	-0.30988800	-0.96730400	0.96583200	-0.31451800	-0.92651500	0.52053900	-0.32191100	-1.03608100	0.11694000	-0.30805300	-0.93399600	0.50564800	-0.43347300	-1.00481100	0.11989200	-0.38595000	-1.03672800	1.13749900	-0.47476500	-1.05534000	1.06300600	-0.45751600	-0.95178000	0.43263800	-0.30136300	-0.96303400	0.33085100	-0.29206800	-1.02136800	0.34014900	-0.28548400	-0.90811000	0.77682100	-0.29699000	-0.91226000	0.67387600	-0.30728800	-0.97027400	0.67617800	-0.30499700	-0.91328700	0.45083200	-0.36411100
4	0.03000000	-0.83493500	1.77691500	-0.56570300	-0.89255000	0.05693500	-0.67260800	-0.87943800	0.06537700	-0.71807200	-0.92490900	0.05566800	-0.76319100	-0.88682000	1.03177700	-0.62071500	-1.10542900	0.06287000	-0.68715200	-1.01012100	0.47420300	-0.71587400	-1.01075000	0.96342500	-0.68343600	-0.97193800	0.52391500	-0.70573100	-1.05511100	0.11080100	-0.72925400	-0.97069300	0.50711600	-0.59377900	-1.01982500	0.11659300	-0.64943100	-1.04323300	1.13347300	-0.52469900	-1.06258400	1.06522000	-0.52374300	-1.05878300	0.43571500	-0.72342300	-1.07790800	0.33539300	-0.73317600	-1.02086400	0.32564400	-0.74574100	-0.98608000	0.82406000	-0.73165600	-0.98457900	0.72160000	-0.72977200	-0.92689000	0.72256000	-0.71332400	-0.94948500	0.44456700	-0.66727000	-0.88646000	0.04600600	-0.37034300	-0.87076000	0.06269300	-0.32052500	-0.91290600	0.05049700	-0.27453700	-0.86407200	1.02844700	-0.40246100	-1.08989000	0.06131900	-0.35102200	-0.98018900	0.47425600	-0.30968600	-0.96738800	0.96610000	-0.31296700	-0.92597200	0.52027700	-0.32149200	-1.03609300	0.11699400	-0.30777400	-0.93348500	0.50569600	-0.43286700	-1.00481900	0.11989600	-0.38593400	-1.03634700	1.13750900	-0.47381800	-1.05497900	1.06300400	-0.45678700	-0.95141400	0.43239200	-0.30100400	-0.96266700	0.33069200	-0.29180700	-1.02103500	0.34004500	-0.28515400	-0.90749600	0.77670900	-0.29615700	-0.91173500	0.67380000	-0.30657500	-0.96980600	0.67608500	-0.30433500	-0.91288200	0.45074300	-0.36371800
5	0.04000000	-0.83061100	1.77562600	-0.56353100	-0.89255100	0.05692900	-0.67262000	-0.87946300	0.06530400	-0.71810800	-0.92496900	0.05570200	-0.76317900	-0.88627100	1.03186400	-0.61966600	-1.10542500	0.06287000	-0.68718600	-1.01000100	0.47395200	-0.71518900	-1.01039500	0.96326900	-0.68255800	-0.97183900	0.52391100	-0.70514800	-1.05511700	0.11086800	-0.72922600	-0.97044700	0.50679900	-0.59322300	-1.01983700	0.11656700	-0.64939000	-1.04255900	1.13332100	-0.52352700	-1.06191300	1.06496700	-0.52237300	-1.05859000	0.43585800	-0.72295300	-1.07786900	0.33541600	-0.73271200	-1.02082700	0.32567100	-0.74541400	-0.98580500	0.82398800	-0.73072000	-0.98430200	0.72163700	-0.72896000	-0.92642800	0.72273800	-0.71256200	-0.94944500	0.44436400	-0.66699600	-0.88645300	0.04603000	-0.37038000	-0.87076700	0.06274900	-0.32056100	-0.91290600	0.05051200	-0.27453400	-0.86363200	1.02840300	-0.40161800	-1.08987300	0.06123800	-0.35106800	-0.97950900	0.47413800	-0.30937600	-0.96710400	0.96632000	-0.31123500	-0.92544700	0.52019300	-0.32102400	-1.03607400	0.11699500	-0.30757800	-0.93312000	0.50559900	-0.43237900	-1.00478500	0.11989700	-0.38591700	-1.03579800	1.13742700	-0.47281500	-1.05473900	1.06301700	-0.45570300	-0.95099900	0.43217200	-0.30064400	-0.96237500	0.33056500	-0.29149600	-1.02090800	0.33994200	-0.28432100	-0.90700500	0.77655400	-0.29531100	-0.91111300	0.67365900	-0.30586200	-0.96931900	0.67599600	-0.30357200	-0.91242700	0.45066500	-0.36332800
